<svg width="125" height="18" viewBox="0 0 125 18" fill="none" xmlns="http://www.w3.org/2000/svg">
<path d="M6.05859 10.3125H4.11328V17.0625H0V0H4.11328V6.59766H5.69531L8.97656 0H13.957L9.26953 7.875L14.543 17.0625H9.67969L6.05859 10.3125Z" fill="white"/>
<path d="M22.7578 4.38281H26.7188V17.0625H22.7578V9.67969L19.2773 17.0625H15.3047V4.38281H19.2773V11.7422L22.7578 4.38281Z" fill="white"/>
<path d="M40.125 17.0625H36.1641V12.3633H32.707V17.0625H28.7578V4.38281H32.707V9.32812H36.1641V4.38281H40.125V17.0625Z" fill="white"/>
<path d="M41.7891 10.6055C41.7891 9.33984 42.0352 8.21484 42.5273 7.23047C43.0195 6.23828 43.7266 5.47656 44.6484 4.94531C45.5703 4.41406 46.6523 4.14844 47.8945 4.14844C49.793 4.14844 51.2891 4.73828 52.3828 5.91797C53.4766 7.08984 54.0234 8.6875 54.0234 10.7109V10.8516C54.0234 12.8281 53.4727 14.3984 52.3711 15.5625C51.2773 16.7188 49.793 17.2969 47.918 17.2969C46.1133 17.2969 44.6641 16.7578 43.5703 15.6797C42.4766 14.5938 41.8867 13.125 41.8008 11.2734L41.7891 10.6055ZM45.7383 10.8516C45.7383 12.0234 45.9219 12.8828 46.2891 13.4297C46.6562 13.9766 47.1992 14.25 47.918 14.25C49.3242 14.25 50.043 13.168 50.0742 11.0039V10.6055C50.0742 8.33203 49.3477 7.19531 47.8945 7.19531C46.5742 7.19531 45.8594 8.17578 45.75 10.1367L45.7383 10.8516Z" fill="white"/>
<path d="M70.2773 17.0625H66.1641V3.17578H60.0352V17.0625H55.9219V0H70.2773V17.0625Z" fill="white"/>
<path d="M72.1641 10.6055C72.1641 9.33984 72.4102 8.21484 72.9023 7.23047C73.3945 6.23828 74.1016 5.47656 75.0234 4.94531C75.9453 4.41406 77.0273 4.14844 78.2695 4.14844C80.168 4.14844 81.6641 4.73828 82.7578 5.91797C83.8516 7.08984 84.3984 8.6875 84.3984 10.7109V10.8516C84.3984 12.8281 83.8477 14.3984 82.7461 15.5625C81.6523 16.7188 80.168 17.2969 78.293 17.2969C76.4883 17.2969 75.0391 16.7578 73.9453 15.6797C72.8516 14.5938 72.2617 13.125 72.1758 11.2734L72.1641 10.6055ZM76.1133 10.8516C76.1133 12.0234 76.2969 12.8828 76.6641 13.4297C77.0312 13.9766 77.5742 14.25 78.293 14.25C79.6992 14.25 80.418 13.168 80.4492 11.0039V10.6055C80.4492 8.33203 79.7227 7.19531 78.2695 7.19531C76.9492 7.19531 76.2344 8.17578 76.125 10.1367L76.1133 10.8516Z" fill="white"/>
<path d="M93.5156 4.38281H97.4766V17.0625H93.5156V9.67969L90.0352 17.0625H86.0625V4.38281H90.0352V11.7422L93.5156 4.38281Z" fill="white"/>
<path d="M104.953 14.25C105.508 14.25 105.938 14.1016 106.242 13.8047C106.547 13.5 106.695 13.0781 106.688 12.5391H110.391C110.391 13.9297 109.891 15.0703 108.891 15.9609C107.898 16.8516 106.617 17.2969 105.047 17.2969C103.203 17.2969 101.75 16.7188 100.688 15.5625C99.625 14.4062 99.0938 12.8047 99.0938 10.7578V10.5938C99.0938 9.3125 99.3281 8.18359 99.7969 7.20703C100.273 6.22266 100.957 5.46875 101.848 4.94531C102.738 4.41406 103.793 4.14844 105.012 4.14844C106.66 4.14844 107.969 4.60547 108.938 5.51953C109.906 6.43359 110.391 7.67188 110.391 9.23438H106.688C106.688 8.57812 106.527 8.07422 106.207 7.72266C105.887 7.37109 105.457 7.19531 104.918 7.19531C103.895 7.19531 103.297 7.84766 103.125 9.15234C103.07 9.56641 103.043 10.1367 103.043 10.8633C103.043 12.1367 103.195 13.0195 103.5 13.5117C103.805 14.0039 104.289 14.25 104.953 14.25Z" fill="white"/>
<path d="M117.469 12.6328H116.285V17.0625H112.324V4.38281H116.285V8.94141H117.422L119.438 4.38281H124.5L120.797 10.2422H120.809L124.875 17.0625H119.52L117.469 12.6328Z" fill="white"/>
</svg>
